<svg width="111" height="112" viewBox="0 0 111 112" fill="none" xmlns="http://www.w3.org/2000/svg">
<g clip-path="url(#clip0_1475_1064)">
<path fill-rule="evenodd" clip-rule="evenodd" d="M53.5687 0.245579C52.7092 0.708503 52.3923 1.82366 52.8467 2.78541C53.2617 3.66339 54.3078 4.00921 55.1798 3.55637C56.4444 2.8997 56.3941 0.735798 55.1016 0.193545C54.4898 -0.0632614 54.1186 -0.0506227 53.5687 0.245579ZM51.5854 6.14528C51.4166 6.17795 51.2834 6.30286 51.2824 6.42951C51.2769 7.16013 54.2549 54.3362 54.331 54.7226L54.4235 55.1932L54.4693 54.6554C54.6041 53.071 57.5278 6.2441 57.4946 6.20188C57.4729 6.17432 56.9175 6.12094 56.2603 6.08329L55.0654 6.01486L54.9836 8.15025C54.9387 9.32471 54.7959 18.605 54.6663 28.773C54.3926 50.2581 54.3507 49.9612 54.0305 24.2688C53.908 14.4335 53.7842 6.31092 53.7552 6.21842C53.7038 6.05385 52.3021 6.00665 51.5854 6.14528ZM49.2519 14.0334C48.6128 14.1183 48.0628 14.2173 48.0294 14.2535C47.9752 14.3123 52.4989 43.6764 52.66 44.3113C52.8135 44.9168 52.7133 43.0722 51.8196 28.8653C51.3043 20.6707 50.8825 13.9396 50.8825 13.9073C50.8825 13.8301 50.6408 13.8488 49.2519 14.0334ZM57.9216 14.0021C57.8885 14.1025 57.4666 20.5983 56.984 28.4369C56.5014 36.2756 56.0782 43.1125 56.0435 43.6302C55.9945 44.3612 56.0095 44.4813 56.1106 44.168C56.3015 43.5764 60.8077 14.3884 60.7281 14.259C60.6911 14.1987 60.2531 14.1086 59.755 14.0588C59.2569 14.0091 58.6541 13.9349 58.4156 13.8938C58.1165 13.8425 57.9631 13.8761 57.9216 14.0021ZM46.8991 22.609C46.2915 22.757 45.7942 22.949 45.7938 23.0356C45.7926 23.3158 51.8445 45.909 51.9767 46.1176C52.0715 46.2672 52.0874 46.2324 52.0386 45.9831C52.0024 45.7983 51.1836 40.5344 50.2193 34.2856C49.2548 28.0369 48.4361 22.7882 48.3997 22.6218C48.3212 22.2639 48.316 22.2637 46.8991 22.609ZM60.3891 22.4296C60.3891 22.4903 59.5745 27.7692 58.5787 34.1607C57.5829 40.5521 56.7846 45.8885 56.8046 46.0192C56.8245 46.15 58.2213 41.0676 59.9086 34.725C61.5957 28.3826 63.0006 23.124 63.0305 23.0393C63.0646 22.9426 62.6291 22.7799 61.8608 22.6023C60.4899 22.2854 60.3891 22.2735 60.3891 22.4296ZM45.9283 31.6095C44.7918 32.014 41.8824 33.4604 41.9331 33.5956C42.0637 33.9429 52.4305 51.8674 52.4752 51.823C52.5042 51.7942 51.3019 47.1709 49.8033 41.5491C47.664 33.5238 47.0342 31.3298 46.8718 31.3375C46.7579 31.3429 46.3334 31.4653 45.9283 31.6095ZM61.6662 31.4815C61.4631 32.0563 56.2434 51.8145 56.2839 51.8551C56.3568 51.9284 66.7156 33.8778 66.7337 33.6458C66.7539 33.3864 65.5183 32.6978 63.8126 32.018C62.0915 31.332 61.7492 31.2465 61.6662 31.4815ZM43.6333 40.6909C43.165 41.0339 42.2383 41.8659 41.5742 42.5396C40.2755 43.8569 38.697 46.0439 38.9071 46.235C39.1415 46.4483 52.6337 54.219 52.6813 54.1681C52.7463 54.0985 44.6773 40.0721 44.5706 40.0694C44.5235 40.0681 44.1017 40.3479 43.6333 40.6909ZM63.6988 40.8338C62.191 43.3521 56.0911 54.0817 56.1394 54.1304C56.2259 54.2171 69.8086 46.3131 69.865 46.1431C69.952 45.8808 68.5334 43.9326 67.3813 42.7326C66.3385 41.6463 65.3954 40.8379 64.5201 40.2801L64.1655 40.0541L63.6988 40.8338ZM43.4822 51.0844C43.1164 52.0288 42.7148 53.9767 42.7148 54.8075V55.2604H47.6913C50.4283 55.2604 52.6427 55.2385 52.612 55.2116C52.5364 55.1456 43.9127 50.1512 43.8742 50.1512C43.8575 50.1512 43.6811 50.5712 43.4822 51.0844ZM60.6291 52.6102C58.294 53.963 56.3409 55.1127 56.2887 55.1651C56.2365 55.2175 58.412 55.2604 61.1231 55.2604H66.0525L65.9683 54.1512C65.8742 52.911 65.6093 51.8048 65.1695 50.8143L64.8746 50.1508L60.6291 52.6102ZM46.8664 56.3025C46.87 56.7993 47.6352 58.7562 47.8259 58.7562C47.9307 58.7562 52.3158 56.395 52.4781 56.2511C52.5088 56.2239 51.2585 56.2016 49.6998 56.2016C48.141 56.2016 46.866 56.2469 46.8664 56.3025ZM56.4459 56.3175C56.7753 56.6179 60.8651 58.7564 61.0061 58.702C61.1881 58.6319 61.6614 57.4347 61.7997 56.6948L61.8918 56.2016H59.1052C57.5349 56.2016 56.3742 56.2522 56.4459 56.3175ZM36.1049 63.5323C34.3444 63.9796 32.6247 65.3002 31.9674 66.7096C31.4679 67.7806 31.3336 68.6464 31.3336 70.7964V72.7394H29.7269H28.1201V74.4201V76.1008H29.7269H31.3336V83.8319V91.563H33.476H35.6183V83.8319V76.1008H37.8276H40.0369V74.4201V72.7394H37.8105H35.584L35.6488 70.8907C35.7225 68.7881 35.9103 68.1416 36.6327 67.5047C37.5695 66.6789 38.8661 66.6065 40.4721 67.2903C40.6888 67.3825 40.7064 67.2489 40.7064 65.509C40.7064 63.2815 40.9033 63.4706 38.4971 63.388C37.3583 63.3489 36.6615 63.391 36.1049 63.5323ZM1.37302 64.2836C0.578341 64.6787 0.228604 65.2229 0.160317 66.1711C0.0880133 67.1749 0.18241 67.521 0.685994 68.0969C1.19266 68.6765 2.2104 69.021 3.04511 68.8957C3.81649 68.7798 4.72484 68.1749 4.99919 67.5944C5.27315 67.0148 5.29162 65.8647 5.03494 65.3714C4.78134 64.884 4.17064 64.3182 3.70884 64.143C3.08461 63.9061 2.00139 63.9713 1.37302 64.2836ZM43.8529 64.2238C43.2326 64.5529 42.9661 64.8272 42.6989 65.4117C41.9069 67.1435 43.088 68.8934 45.0457 68.8888C46.584 68.8852 47.6745 67.8682 47.666 66.445C47.6627 65.8736 47.2884 64.9785 46.9131 64.6437C46.2094 64.0162 44.648 63.802 43.8529 64.2238ZM72.5697 64.3025C70.8026 65.1989 70.8435 67.7211 72.6406 68.6738C73.1679 68.9533 74.5235 68.9533 75.0508 68.6738C76.9312 67.677 76.9528 65.2153 75.0896 64.2558C74.3955 63.8983 73.3272 63.9182 72.5697 64.3025ZM83.7207 67.813L81.8129 68.3697L81.8127 70.5546L81.8125 72.7394H80.2058H78.599V74.4201V76.1008H80.2058H81.8125V81.9429C81.8125 85.5519 81.8668 88.0392 81.9545 88.4498C82.284 89.9921 83.407 91.1722 85.0094 91.66C86.0703 91.983 88.5511 91.9721 89.6789 91.6397L90.5158 91.393V89.5976V87.8021L90.085 88.0653C89.0791 88.6796 87.4708 88.5157 86.7828 87.7289C86.1627 87.0198 86.0972 86.3772 86.0972 81.0017V76.1008H88.3065H90.5158V74.4201V72.7394H88.3065H86.0972V69.9831C86.0972 67.4421 86.0789 67.228 85.8629 67.2416C85.7341 67.2497 84.77 67.5069 83.7207 67.813ZM16.4393 72.5906C15.1618 73.0116 13.7108 74.132 12.9426 75.2904C12.7309 75.6093 12.7221 75.5646 12.7221 74.1812V72.7394H10.5128H8.30349V82.1512V91.563H10.5077H12.7119L12.7504 85.4117L12.789 79.2604L13.1671 78.4389C13.9285 76.7846 15.3535 75.8082 17.0067 75.8082C18.6233 75.8082 19.607 76.4973 20.2399 78.0729C20.553 78.8522 20.5553 78.8963 20.5946 85.21L20.6341 91.563H22.847H25.0601L25.0049 84.7394C24.9444 77.2292 24.928 77.0641 24.0779 75.33C23.5407 74.2344 22.389 73.1433 21.3296 72.7264C20.232 72.2944 17.5625 72.2203 16.4393 72.5906ZM59.5539 72.5895C58.2699 73.0144 57.0981 73.9108 56.1264 75.2114L55.8367 75.5993V74.1693V72.7394H53.6274H51.4181V82.1512V91.563H53.6211H55.8241L55.8638 85.4117L55.9036 79.2604L56.2598 78.4974C57.0544 76.7954 58.4602 75.8082 60.0893 75.8082C61.5833 75.8082 62.5067 76.3462 63.1298 77.5798C63.6894 78.6877 63.7365 79.3092 63.7365 85.5864V91.563H65.9547H68.1726L68.1234 84.7394C68.0762 78.2277 68.0606 77.8678 67.7827 76.8638C67.6225 76.2852 67.3296 75.5132 67.1317 75.1482C66.6509 74.261 65.5194 73.2095 64.5738 72.7712C63.886 72.4522 63.617 72.4097 62.0628 72.3747C60.6406 72.3425 60.1817 72.3818 59.5539 72.5895ZM0.403607 82.1512V91.563H2.61289H4.82218V82.1512V72.7394H2.61289H0.403607V82.1512ZM42.8487 82.1512V91.563H44.9911H47.1334V82.1512V72.7394H44.9911H42.8487V82.1512ZM71.6364 82.1512V91.563H73.8457H76.055V82.1512V72.7394H73.8457H71.6364V82.1512ZM92.1667 72.8403C92.2896 73.0472 99.487 91.267 99.4899 91.379C99.4986 91.7062 98.188 94.6947 97.8009 95.2303C96.8169 96.5918 95.19 97.029 93.2272 96.4594L92.9259 96.372V98.1948C92.9259 99.3611 92.9783 100.05 93.0713 100.108C93.3545 100.284 95.9366 100.337 96.675 100.182C98.8518 99.7265 100.728 98.15 102.132 95.5966C102.509 94.9105 111.002 73.1466 111.002 72.8658C111.002 72.792 110.096 72.7401 108.826 72.7409L106.65 72.7424L104.351 79.4972C103.086 83.2123 101.98 86.5243 101.893 86.8571L101.734 87.4621L101.439 86.4537C101.277 85.8991 100.214 82.5874 99.0767 79.0942L97.0098 72.7431L94.5582 72.7413C93.2099 72.7402 92.1337 72.7847 92.1667 72.8403ZM11.1153 101.307V103.118L10.6279 102.786C10.2462 102.526 9.96996 102.454 9.35163 102.454C8.34004 102.454 7.8003 102.687 7.21223 103.376C6.62643 104.064 6.42894 104.703 6.42894 105.911C6.42894 106.979 6.59176 107.573 7.05691 108.202C7.86364 109.293 9.63214 109.465 10.7076 108.556L11.1153 108.211V108.627C11.1153 109.029 11.1338 109.042 11.7178 109.042H12.3204V104.269V99.4957H11.7178H11.1153V101.307ZM35.427 99.8414C35.3113 99.9577 35.2166 100.195 35.2166 100.37C35.2166 101.125 36.1724 101.355 36.5434 100.688C36.7199 100.37 36.7165 100.297 36.511 99.9818C36.249 99.5802 35.7514 99.5158 35.427 99.8414ZM43.7398 99.8761C43.4491 100.199 43.4586 100.61 43.7631 100.887C44.2552 101.334 44.9911 101.024 44.9911 100.37C44.9911 99.7033 44.1829 99.3845 43.7398 99.8761ZM86.9825 99.8042C86.8178 99.9252 86.7591 100.116 86.7896 100.429C86.845 100.997 87.1559 101.212 87.6634 101.034C88.3741 100.785 88.1873 99.6302 87.4362 99.6302C87.317 99.6302 87.1129 99.7084 86.9825 99.8042ZM31.8358 100.862C31.4907 100.989 31.4675 101.047 31.4675 101.793V102.588H30.932C30.4091 102.588 30.3964 102.599 30.3964 103.059C30.3964 103.518 30.4091 103.529 30.932 103.529H31.4675V105.755C31.4675 108.711 31.6546 109.08 33.1501 109.08C34.016 109.08 34.1455 108.999 34.1455 108.454C34.1455 108.021 34.1388 108.017 33.5159 108.025C32.6225 108.037 32.5431 107.827 32.5407 105.445L32.5387 103.529H33.3421H34.1455V103.059V102.588H33.3421H32.5387V101.647C32.5387 100.641 32.5139 100.613 31.8358 100.862ZM1.20698 102.699C0.621456 102.924 0.603246 102.949 0.563613 103.566C0.519695 104.25 0.585706 104.321 0.953251 103.987C1.27233 103.697 2.11252 103.408 2.65668 103.401C3.21061 103.393 3.88491 104.012 3.88491 104.527C3.88491 104.718 3.83979 104.874 3.78449 104.874C3.28224 104.877 1.28772 105.298 0.95218 105.472C-0.238961 106.091 -0.350095 108.24 0.77865 108.826C1.66812 109.288 2.80035 109.207 3.53263 108.628L3.88491 108.35V108.696C3.88491 109.017 3.92869 109.042 4.49762 109.042H5.11046L5.06668 106.454C5.01807 103.574 4.92662 103.216 4.11267 102.717C3.55901 102.378 2.06821 102.369 1.20698 102.699ZM21.4042 102.725C20.7904 103.051 20.1212 103.854 19.9505 104.471C19.8787 104.729 19.8198 105.398 19.8194 105.957C19.8178 108.007 20.8196 109.102 22.6961 109.102C23.2839 109.102 23.8802 109.01 24.2738 108.859C24.8955 108.621 24.9066 108.606 24.9066 108.026V107.436L24.2841 107.768C23.1699 108.363 21.7346 108.126 21.279 107.271C21.1891 107.102 21.0712 106.766 21.0168 106.524L20.918 106.084H23.1131H25.3083L25.3054 105.244C25.3008 103.943 24.7367 102.956 23.7933 102.597C23.1873 102.367 21.9561 102.433 21.4042 102.725ZM28.6415 102.678C28.4496 102.798 28.1951 103.054 28.0761 103.246L27.8594 103.597L27.856 103.092C27.8523 102.594 27.8458 102.588 27.3168 102.588H26.7812V105.815V109.042H27.3168H27.8523L27.8531 107.193C27.8539 105.078 27.9845 104.452 28.5408 103.893C28.8904 103.542 29.0053 103.504 29.5325 103.563L30.1286 103.631V103.042V102.454L29.5595 102.457C29.2465 102.459 28.8334 102.559 28.6415 102.678ZM39.1599 102.643C38.4442 102.956 38.0285 103.588 38.0285 104.364C38.0285 104.962 38.0829 105.095 38.4799 105.471C38.7283 105.707 39.2856 106.035 39.7185 106.201C40.6405 106.556 41.1081 106.951 41.1081 107.377C41.1081 108.091 39.658 108.358 38.631 107.832C38.342 107.684 38.0883 107.563 38.0671 107.563C38.0459 107.563 38.0285 107.837 38.0285 108.171C38.0285 108.679 38.0784 108.799 38.3297 108.894C39.5052 109.34 40.9925 109.141 41.76 108.434C42.2099 108.02 42.2462 107.93 42.2462 107.222C42.2462 106.507 42.2136 106.429 41.756 106.035C41.4865 105.803 40.914 105.472 40.484 105.3C39.5561 104.927 39.2328 104.663 39.2355 104.282C39.2413 103.491 40.2731 103.153 41.3295 103.597C42.0073 103.881 42.0453 103.863 42.0453 103.257C42.0453 102.8 41.992 102.696 41.7019 102.585C41.2097 102.397 39.6403 102.433 39.1599 102.643ZM48.8071 102.61C48.6598 102.692 48.3735 102.913 48.1711 103.102L47.8029 103.445V103.017C47.8029 102.606 47.7801 102.588 47.2673 102.588H46.7317V105.815V109.042H47.2673H47.8029V107.219C47.8029 106.217 47.8688 105.133 47.9494 104.812C48.1382 104.059 48.6883 103.529 49.3758 103.436C49.8318 103.375 49.9717 103.422 50.3614 103.772L50.8155 104.179L50.8574 106.61L50.8994 109.042H51.5039H52.1084L52.0645 106.521C52.0153 103.694 51.8949 103.226 51.0868 102.725C50.5961 102.42 49.2702 102.354 48.8071 102.61ZM55.1002 102.641C54.0276 103.113 53.4265 104.278 53.4265 105.886C53.4265 106.978 53.5869 107.569 54.0545 108.202C54.8678 109.302 56.63 109.464 57.7241 108.54L58.1507 108.179L58.0868 108.952C58.0477 109.427 57.9205 109.866 57.7571 110.089C57.1486 110.923 55.8914 111.149 54.5996 110.656C54.2121 110.508 53.88 110.387 53.8617 110.387C53.8433 110.386 53.8282 110.651 53.8282 110.974C53.8282 111.56 53.8299 111.562 54.4642 111.742C55.9339 112.159 57.7416 111.844 58.4747 111.042C59.1847 110.265 59.2447 109.904 59.2928 106.118L59.3376 102.588H58.7253C58.2053 102.588 58.1129 102.628 58.1129 102.853C58.1129 103.104 58.0877 103.101 57.6255 102.786C57.2356 102.52 56.9749 102.455 56.32 102.459C55.8701 102.462 55.3212 102.544 55.1002 102.641ZM65.4035 102.643C65.179 102.741 64.8262 103.023 64.6193 103.27C64.2836 103.671 64.25 103.797 64.3044 104.456C64.3565 105.087 64.4285 105.247 64.7987 105.558C65.0371 105.757 65.5734 106.052 65.9907 106.212C67.2731 106.705 67.7256 107.419 67.0541 107.891C66.6292 108.19 65.5152 108.16 64.8746 107.832C64.5857 107.684 64.332 107.563 64.3108 107.563C64.2895 107.563 64.2721 107.837 64.2721 108.171C64.2721 108.679 64.3221 108.799 64.5734 108.894C65.7489 109.34 67.2362 109.141 68.0037 108.434C68.4536 108.02 68.4898 107.93 68.4898 107.222C68.4898 106.507 68.4573 106.429 67.9996 106.035C67.7301 105.803 67.1577 105.472 66.7276 105.3C65.7997 104.927 65.4765 104.663 65.4792 104.282C65.4849 103.491 66.5168 103.153 67.5732 103.597C68.251 103.881 68.289 103.863 68.289 103.257C68.289 102.8 68.2357 102.696 67.9456 102.585C67.4534 102.397 65.884 102.433 65.4035 102.643ZM71.1198 102.737C69.9843 103.315 69.3857 104.663 69.538 106.3C69.6746 107.769 70.3098 108.652 71.4743 108.992C72.3015 109.233 73.4361 109.151 74.1804 108.795C74.5936 108.597 74.6539 108.503 74.6902 108C74.7129 107.685 74.7129 107.429 74.6902 107.429C74.6676 107.429 74.3526 107.581 73.9904 107.765C73.1979 108.169 72.2007 108.212 71.6207 107.868C71.2299 107.637 70.6991 106.739 70.6991 106.31C70.6991 106.107 70.9277 106.084 72.9278 106.084H75.1565L75.079 105.155C74.9275 103.34 74.2079 102.551 72.6412 102.481C71.8833 102.448 71.5914 102.497 71.1198 102.737ZM78.5171 102.581C78.3616 102.646 78.1055 102.865 77.948 103.066L77.6617 103.431V103.01C77.6617 102.6 77.6451 102.588 77.0592 102.588H76.4567V105.815V109.042H77.0592H77.6617V107.021C77.6617 104.789 77.7725 104.317 78.4155 103.808C78.7262 103.561 78.9072 103.518 79.3604 103.58C79.893 103.653 79.923 103.638 79.9629 103.29C79.9922 103.035 80.3481 103.846 81.143 105.981L82.2812 109.038L82.8253 109.04L83.3693 109.042L84.5444 106.086C85.1906 104.461 85.7511 103.009 85.79 102.859C85.8528 102.618 85.7965 102.588 85.276 102.588L84.6913 102.588L83.821 105.008C83.3423 106.339 82.9205 107.428 82.8837 107.427C82.8469 107.427 82.4619 106.383 82.0282 105.108C81.5946 103.833 81.2029 102.751 81.1579 102.704C81.0184 102.557 78.8159 102.454 78.5171 102.581ZM91.3192 102.668C90.7098 102.933 90.1608 103.464 89.8016 104.134C89.4245 104.838 89.3856 106.859 89.7368 107.504C90.5167 108.936 92.0698 109.463 93.8297 108.893C94.2344 108.762 94.2649 108.71 94.2649 108.155V107.557L93.7346 107.829C92.6391 108.39 91.4026 108.041 90.8769 107.022C90.5444 106.378 90.6117 104.9 90.9969 104.382C91.6934 103.445 92.6185 103.186 93.6427 103.641L94.2649 103.918V103.317C94.2649 102.795 94.2194 102.699 93.9214 102.585C93.4042 102.387 91.8502 102.437 91.3192 102.668ZM96.8089 102.755C95.3521 103.532 94.7966 105.781 95.6013 107.645C96.0879 108.772 97.4276 109.333 98.9776 109.058C100.129 108.855 100.424 108.629 100.424 107.952C100.424 107.652 100.379 107.429 100.324 107.458C99.2173 108.027 98.8696 108.127 98.1942 108.071C97.3872 108.004 96.8997 107.657 96.5908 106.929C96.2244 106.065 96.1788 106.084 98.6344 106.084H100.862L100.797 105.176C100.72 104.098 100.344 103.279 99.7248 102.836C99.06 102.36 97.6231 102.32 96.8089 102.755ZM102.863 102.739C102.184 103.077 101.897 103.564 101.897 104.378C101.897 105.212 102.266 105.616 103.583 106.224C104.954 106.857 105.254 107.285 104.709 107.832C104.35 108.192 103.245 108.191 102.451 107.829C102.13 107.683 101.844 107.563 101.815 107.563C101.787 107.563 101.763 107.831 101.763 108.158C101.763 108.724 101.787 108.76 102.265 108.927C103.026 109.191 104.412 109.144 105.036 108.833C105.77 108.468 106.07 108.006 106.07 107.241C106.07 106.332 105.788 105.998 104.529 105.413C103.928 105.134 103.326 104.782 103.191 104.631C102.973 104.388 102.965 104.311 103.124 103.981C103.424 103.353 104.419 103.249 105.546 103.728C105.749 103.814 105.78 103.746 105.78 103.223C105.78 102.514 105.674 102.458 104.307 102.456C103.687 102.454 103.272 102.536 102.863 102.739ZM13.3163 102.823C13.3585 102.953 13.8973 104.39 14.5136 106.017L15.6342 108.975H16.2038H16.7734L18.0119 105.815L19.2503 102.655L18.7128 102.613C18.4173 102.59 18.1267 102.62 18.0671 102.68C18.0075 102.741 17.5726 103.87 17.1009 105.19L16.243 107.591L15.4198 105.213C14.9671 103.905 14.5966 102.78 14.5966 102.712C14.5966 102.644 14.2913 102.588 13.9182 102.588C13.332 102.588 13.25 102.62 13.3163 102.823ZM35.3505 105.815V109.042H35.8861H36.4217V105.815V102.588H35.8861H35.3505V105.815ZM43.6521 105.815V109.042H44.2546H44.8572V105.815V102.588H44.2546H43.6521V105.815ZM86.9006 105.815V109.042H87.4362H87.9718V105.815V102.588H87.4362H86.9006V105.815ZM8.83907 103.49C8.51651 103.608 8.02699 104.102 7.80258 104.535C7.51698 105.087 7.51992 106.565 7.80767 107.114C8.49857 108.433 10.27 108.437 10.8917 107.122C11.1607 106.552 11.193 104.834 10.9441 104.34C10.5939 103.645 9.55662 103.226 8.83907 103.49ZM21.9396 103.6C21.5512 103.812 21.0236 104.574 21.0236 104.923C21.0236 105.114 21.2344 105.143 22.6394 105.143C24.4451 105.143 24.3453 105.218 23.9415 104.162C23.6789 103.475 22.6819 103.195 21.9396 103.6ZM55.7587 103.525C54.7133 103.95 54.2191 105.933 54.8477 107.181C55.479 108.435 57.2855 108.399 57.8893 107.122C58.2156 106.431 58.1936 104.807 57.8505 104.242C57.4149 103.524 56.5176 103.217 55.7587 103.525ZM71.8263 103.525C71.5363 103.643 70.833 104.407 70.833 104.604C70.833 104.667 70.7965 104.813 70.7518 104.93C70.6804 105.117 70.8684 105.143 72.2916 105.143C73.8836 105.143 73.9126 105.137 73.9121 104.84C73.9118 104.674 73.7913 104.34 73.6443 104.097C73.2624 103.468 72.5319 103.239 71.8263 103.525ZM97.4057 103.645C96.9743 103.91 96.6417 104.341 96.4845 104.84C96.3893 105.143 96.3903 105.143 98.005 105.143C99.5914 105.143 99.6207 105.137 99.6202 104.84C99.6195 104.398 99.1376 103.677 98.7416 103.526C98.2349 103.333 97.8623 103.366 97.4057 103.645ZM2.65467 106.001C1.58993 106.192 1.20698 106.486 1.20698 107.113C1.20698 107.727 1.60332 108.102 2.24468 108.096C2.8681 108.09 3.2888 107.863 3.62435 107.352C3.92146 106.9 3.98828 105.807 3.71754 105.828C3.62555 105.835 3.14714 105.913 2.65467 106.001Z" fill="white"/>
</g>
<defs>
<clipPath id="clip0_1475_1064">
<rect width="111" height="112" fill="white"/>
</clipPath>
</defs>
</svg>
