<svg width="291" height="55" viewBox="0 0 291 55" fill="none" xmlns="http://www.w3.org/2000/svg">
<path fill-rule="evenodd" clip-rule="evenodd" d="M25.3185 1.17374C21.0689 1.68054 17.5401 2.8265 14.2903 4.75472C7.55595 8.75072 3.01496 15.2442 1.59859 22.9038C1.20151 25.0511 1.20151 29.7955 1.59859 31.9428C3.6353 42.9566 12.2435 51.4666 23.3044 53.4008C24.0713 53.5348 25.7445 53.6813 27.0227 53.7262C40.1556 54.1875 51.4521 45.2444 54.0872 32.3004C54.3867 30.8295 54.4407 30.0837 54.4407 27.4233C54.4407 24.7629 54.3867 24.0171 54.0872 22.5462C51.7747 11.187 42.7769 2.78514 31.3356 1.30213C29.7454 1.09592 26.543 1.02759 25.3185 1.17374ZM18.8229 7.67952C18.784 7.79519 18.7192 11.3025 18.679 15.4734C18.5939 24.2794 18.2681 28.5559 17.3129 33.3982C16.7351 36.3288 16.984 39.3062 17.9686 41.2375C19.2824 43.8145 21.6384 45.8887 24.337 46.8446C25.375 47.2123 25.6813 47.2477 27.8748 47.2522C30.0939 47.2568 30.3625 47.2264 31.4126 46.8498C33.1234 46.2362 34.1673 45.5598 35.6225 44.1225C37.55 42.2186 38.7103 39.821 38.7176 37.7262L38.7199 37.0751L37.7516 37.076C35.7922 37.0777 34.8812 37.6473 33.8432 39.5201C32.3834 42.1533 29.6233 43.5616 26.8448 43.0909C22.8332 42.4115 20.3321 38.4657 21.5008 34.6606C21.936 33.2433 22.9087 31.9485 24.1571 31.1241C25.4987 30.2383 26.4959 29.9784 28.2615 30.0549C29.4868 30.1079 29.8333 30.1872 30.7173 30.6176C32.0134 31.2486 33.0563 32.2472 33.8859 33.6518C34.9359 35.4295 36.2768 36.3681 38.2258 36.6889L38.8937 36.7987L38.7916 35.8262C38.6164 34.157 38.2732 32.9432 37.6315 31.7236C36.1693 28.9443 33.5987 26.8662 30.7153 26.1326C28.1467 25.479 25.7176 25.7139 22.8568 26.8923C22.5737 27.0089 22.5677 26.916 22.6718 24.039C22.8377 19.4535 22.8112 13.2178 22.6208 12.0264C22.3398 10.2673 21.8513 8.94606 21.2237 8.24668C20.7093 7.6734 20.5728 7.60706 19.7748 7.54164C19.1159 7.48756 18.8759 7.52234 18.8229 7.67952ZM25.8826 10.248C25.7391 10.3379 25.6048 11.0809 25.461 12.5808C24.9541 17.8715 24.1918 22.0477 22.9824 26.1591L22.8811 26.5035L23.7323 26.118C24.2005 25.9061 25.2021 25.6132 25.958 25.4672L27.3326 25.2018L27.8162 22.7506C28.9254 17.1288 29.1929 14.157 28.7454 12.4317C28.4264 11.2027 28.044 10.6711 27.254 10.3586C26.5554 10.0822 26.1937 10.0529 25.8826 10.248ZM30.8265 14.7457C30.7494 14.9352 30.3569 16.2624 29.9546 17.6949C29.5521 19.1273 28.8498 21.3888 28.3938 22.7204C27.938 24.0519 27.5649 25.1723 27.5649 25.21C27.5649 25.2477 27.8725 25.2784 28.2485 25.2784C28.6245 25.2784 29.4748 25.3811 30.1382 25.5067C31.0913 25.6869 31.3705 25.695 31.4686 25.545C31.6913 25.2041 32.9515 21.2492 33.2377 19.9929C33.6156 18.3342 33.6221 16.1768 33.251 15.505C32.6953 14.4981 31.1271 14.0071 30.8265 14.7457Z" fill="white"/>
<path fill-rule="evenodd" clip-rule="evenodd" d="M180.611 24.4746L180.611 24.4744C181.084 24.005 181.522 23.5698 182.025 23.23C184.133 21.8055 186.406 21.5063 188.775 22.5627C189.838 23.0379 190.454 23.9576 190.753 25.0164C191.058 26.0323 191.232 27.0826 191.273 28.1424C191.321 30.6902 191.313 33.238 191.306 35.7858V35.7879C191.303 36.6781 191.3 37.5683 191.3 38.4585C191.3 38.561 191.287 38.6635 191.272 38.7838C191.264 38.85 191.255 38.9216 191.247 39.0015C190.957 39.0015 190.668 39.0023 190.381 39.003C189.367 39.0058 188.365 39.0085 187.365 38.9769C187.248 38.9769 187.049 38.6075 187.046 38.413C187.029 37.0137 187.03 35.6144 187.031 34.2146C187.031 33.6082 187.031 33.0016 187.03 32.3949C187.03 32.1808 187.03 31.9665 187.031 31.7523V31.7521V31.752V31.7518V31.7517V31.7515V31.7514V31.7512V31.7511C187.032 30.7585 187.034 29.7648 187.004 28.7728C186.927 26.1811 184.89 24.9561 182.587 26.1122C181.356 26.7278 180.459 27.6893 180.023 29.0141C179.925 29.3665 179.881 29.7318 179.893 30.0975L179.891 30.5525C179.882 33.1241 179.872 35.6947 179.9 38.2652C179.9 38.855 179.743 39.052 179.143 39.0187C178.241 38.9657 177.337 38.9657 176.435 39.0187C175.835 39.0544 175.725 38.8205 175.727 38.28C175.739 34.0184 175.738 29.7561 175.737 25.4942C175.737 24.3114 175.736 23.1286 175.736 21.9458C175.736 21.4379 175.738 20.93 175.739 20.422C175.742 19.0672 175.744 17.7123 175.727 16.3575C175.727 15.8416 175.85 15.6188 176.409 15.6471C177.351 15.6914 178.296 15.6853 179.24 15.6471C179.77 15.6262 179.898 15.8342 179.895 16.3255C179.882 18.2991 179.884 20.2726 179.885 22.2467C179.886 22.9339 179.887 23.6212 179.887 24.3085V25.1752C180.144 24.9386 180.381 24.7029 180.61 24.4753L180.61 24.4752L180.611 24.4746ZM152.38 38.9535C151.246 39.2441 150.188 39.345 149.163 38.9203C148.036 38.4536 147.856 37.4133 147.828 36.3064L147.661 36.3175C147.598 36.3905 147.536 36.4641 147.474 36.5378C147.334 36.7041 147.194 36.8705 147.045 37.0292C145.163 39.0483 142.834 39.7378 140.18 39.1222C136.867 38.3564 134.962 36.1168 134.227 32.9022C133.476 29.6236 134.049 26.5751 136.435 24.0844C139.375 21.0126 143.991 21.2749 146.661 24.5769C146.737 24.672 146.821 24.7601 146.937 24.8815L146.938 24.8818L146.938 24.8818L146.938 24.8821L146.939 24.8838C146.991 24.9379 147.049 24.9986 147.115 25.0694C147.123 24.9379 147.131 24.8232 147.138 24.7195C147.151 24.5317 147.162 24.3795 147.162 24.2273C147.162 23.5072 147.164 22.7871 147.165 22.067V22.0656C147.17 20.1859 147.174 18.3062 147.149 16.4265C147.14 15.7825 147.357 15.62 147.959 15.652C148.84 15.6994 149.723 15.6994 150.604 15.652C151.22 15.6176 151.433 15.8047 151.416 16.4375C151.388 17.5556 151.393 18.6749 151.399 19.7945V19.7947V19.7948V19.795V19.7952V19.7954V19.7956V19.7957V19.7959V19.7961V19.7963V19.7965V19.7966V19.7968L151.399 19.8012C151.401 20.2563 151.403 20.7114 151.403 21.1665V33.5732C151.395 33.9616 151.424 34.3498 151.487 34.733C151.529 34.9521 151.66 35.2636 151.829 35.3289C152.398 35.5483 152.39 35.9725 152.381 36.4264C152.381 36.4589 152.38 36.4916 152.38 36.5244V38.9535ZM147.233 30.8868H147.16C147.16 30.6758 147.174 30.4607 147.189 30.2455C147.22 29.7734 147.252 29.3009 147.131 28.8713C146.631 27.0836 144.381 25.0115 141.751 25.6899C139.885 26.1713 138.893 27.5502 138.478 29.3687C137.831 32.2127 139.385 35.3707 142.504 35.7253C144.292 35.9272 146.53 34.7182 147.066 33.0167C147.208 32.5577 147.212 32.0585 147.216 31.5604C147.217 31.3344 147.219 31.1085 147.233 30.8868ZM77.2631 27.3361C77.4674 27.4514 77.671 27.559 77.8716 27.6651C78.3009 27.892 78.7163 28.1116 79.0939 28.3826C81.5476 30.1456 82.1078 34.2012 80.234 36.4961C79.0865 37.9034 77.5253 38.5497 75.7832 38.8354C75.1573 38.9395 74.5241 38.9935 73.8896 38.9967C70.4854 39.0114 67.0812 39.004 63.6769 38.9967C63.5377 38.9967 63.3978 38.9876 63.2418 38.9776H63.2418H63.2418H63.2418H63.2418H63.2418H63.2418H63.2418H63.2418H63.2418H63.2417H63.2417L63.2414 38.9776L63.241 38.9776L63.2409 38.9776L63.2408 38.9775L63.2406 38.9775L63.2404 38.9775L63.24 38.9775L63.2395 38.9775L63.2393 38.9774C63.1726 38.9732 63.1031 38.9687 63.0293 38.9646C63.0253 38.889 63.0207 38.8165 63.0163 38.7461C63.0058 38.5805 62.9961 38.4269 62.9961 38.274V17.0273C62.9961 16.2271 62.9961 16.2246 63.8284 16.2246C64.9382 16.2246 66.0484 16.2289 67.1587 16.2331C69.6797 16.2428 72.201 16.2525 74.7182 16.2123C78.8686 16.1458 80.74 19.8714 80.2869 22.9186C80.0246 24.6816 79.1924 26.1049 77.6164 27.0344C77.5309 27.0881 77.4486 27.1469 77.3702 27.2105C77.3299 27.2482 77.294 27.2903 77.2631 27.3361ZM71.0579 35.3129V35.2896C71.3682 35.2896 71.6787 35.2873 71.9893 35.285H71.9894C72.7043 35.2798 73.4201 35.2746 74.1359 35.2969C75.388 35.3351 76.7029 34.1889 76.9024 32.8038C77.1671 30.9705 75.9346 29.1102 73.9155 29.1804C72.3038 29.2418 70.6921 29.2217 69.0804 29.2016H69.0803C68.7222 29.1971 68.364 29.1926 68.0058 29.189C67.5133 29.189 67.3077 29.3208 67.3151 29.8465C67.341 31.463 67.3385 33.0796 67.3151 34.6961C67.3089 35.1529 67.4788 35.3216 67.9184 35.3179C68.6797 35.3089 69.4403 35.3104 70.2003 35.3118H70.2004H70.2006H70.2007H70.2009H70.201H70.2012H70.2013H70.2014H70.2016H70.2017H70.2019H70.202H70.2026H70.2029H70.2031H70.2034H70.2037H70.204H70.2042H70.2045H70.2048H70.2051H70.2053H70.2056H70.2059H70.2062C70.4902 35.3124 70.7741 35.3129 71.0579 35.3129ZM70.7427 19.9662C70.4668 19.9662 70.1908 19.9675 69.9148 19.9687H69.9147H69.9147H69.9147H69.9147H69.9146H69.9146H69.9146H69.9145H69.9145H69.9145H69.9145H69.9144H69.9144C69.2473 19.9718 68.5797 19.9748 67.911 19.96C67.4961 19.9514 67.3151 20.0832 67.3188 20.5178C67.3327 22.092 67.3327 23.6676 67.3188 25.2443C67.3188 25.6752 67.4838 25.8131 67.9024 25.8094C68.6811 25.8032 69.4599 25.8046 70.2386 25.806C71.3067 25.808 72.3747 25.81 73.4427 25.7922C75.0186 25.7663 76.0861 24.5142 76.0639 22.7881C76.0442 21.142 74.9472 19.9822 73.3898 19.9687C72.7516 19.9615 72.1147 19.9628 71.4781 19.964H71.4781H71.478H71.4779H71.4779H71.4778H71.4778H71.4777H71.4776H71.4776H71.4775H71.4775H71.4774H71.4772H71.4771H71.4769H71.4768H71.4766H71.4764H71.4763H71.4761H71.476H71.4758H71.4757H71.4755H71.4753H71.4752C71.231 19.9645 70.9869 19.965 70.7427 19.965V19.9662ZM165.266 20.0699C166.917 20.3543 168.404 21.0831 169.872 22.1013C170.05 21.7806 170.226 21.4664 170.399 21.1567C170.831 20.3835 171.248 19.6376 171.651 18.8842C171.701 18.7894 171.552 18.5001 171.429 18.4201C170.894 18.0844 170.34 17.7774 169.772 17.5004C167.087 16.2138 164.29 15.7977 161.348 16.4071C158.407 17.0165 155.985 19.0345 155.636 22.094C155.463 23.6034 155.505 25.0857 156.462 26.376C157.367 27.6072 158.669 28.2487 160.057 28.7153C160.8 28.9638 161.552 29.189 162.304 29.4142L162.304 29.4142C163.254 29.699 164.205 29.9838 165.139 30.3158C165.943 30.6015 166.697 31.0129 167.373 31.5347C168.05 32.0604 168.084 32.9161 167.838 33.6868C167.519 34.6976 166.65 35.0965 165.672 35.248C163.432 35.5964 161.311 35.1261 159.287 34.1928C158.648 33.8963 158.031 33.5528 157.403 33.2034L157.402 33.2033L157.402 33.2032L157.402 33.203L157.402 33.2029L157.402 33.2028L157.401 33.2027L157.401 33.2026L157.401 33.2025L157.401 33.2024L157.401 33.2022L157.4 33.2021L157.4 33.202C157.108 33.0397 156.814 32.8761 156.515 32.7154C156.029 33.6482 155.549 34.5872 155.061 35.5426C154.931 35.7977 154.8 36.054 154.668 36.3117C154.754 36.3704 154.832 36.4258 154.906 36.4783L154.907 36.4784L154.907 36.4788L154.908 36.4794C155.01 36.552 155.105 36.619 155.202 36.6811C157.404 38.0723 159.819 38.8615 162.395 39.1508C164.473 39.3835 166.546 39.3035 168.516 38.5352C171.745 37.2745 172.974 34.7013 172.503 31.254C172.278 29.6005 171.367 28.4075 169.952 27.5604C168.569 26.7335 167.044 26.3038 165.516 25.8734C165.253 25.7995 164.991 25.7256 164.729 25.6496C163.589 25.3322 162.467 24.9537 161.368 24.5157C160.491 24.1587 159.992 23.4286 160.041 22.435C160.09 21.4414 160.559 20.7163 161.518 20.305C162.748 19.7793 164.018 19.8544 165.266 20.0699ZM254.6 38.9857C255.598 39.3341 256.621 39.2332 257.715 38.9377C257.715 38.7045 257.715 38.4724 257.716 38.2413C257.717 37.4584 257.718 36.686 257.707 35.9151C257.701 35.848 257.68 35.7831 257.645 35.7256C257.61 35.6681 257.562 35.6196 257.505 35.5839C256.68 35.3081 256.643 34.647 256.643 33.9427C256.643 33.5671 256.644 33.1915 256.645 32.8159C256.649 31.2463 256.653 29.6768 256.621 28.1081C256.597 27.0203 256.285 25.9583 255.717 25.0302C254.508 23.0332 252.559 22.2489 250.372 22.0261C247.544 21.7392 244.876 22.3228 242.451 23.8495C242.307 23.9418 242.133 24.2447 242.184 24.3678C242.445 24.9766 242.736 25.5716 243.034 26.1796L243.034 26.1799C243.136 26.387 243.238 26.5956 243.34 26.8068C243.462 26.7344 243.557 26.6821 243.642 26.6352L243.642 26.6349C243.689 26.6093 243.732 26.5853 243.776 26.5605C245.403 25.6125 247.09 24.8972 249.043 24.9969C251.293 25.1114 252.585 26.499 252.462 28.7471C252.438 29.1817 252.307 29.2642 251.892 29.1276C250.466 28.6609 248.988 28.6523 247.511 28.6917C246.136 28.7363 244.794 29.1258 243.609 29.8244C240.442 31.6343 240.28 36.1921 243.313 38.2297C245.712 39.8463 248.667 39.6037 251.13 38.0648C251.586 37.7801 252.003 37.4277 252.459 37.0418L252.46 37.0411L252.46 37.0404L252.462 37.0393C252.668 36.8652 252.881 36.6844 253.111 36.4999C253.165 37.6462 253.504 38.6016 254.6 38.9857ZM248.429 31.0474L248.429 31.0474C248.658 31.0034 248.889 30.9588 249.121 30.9066L249.509 30.9946L249.509 30.9947C250.34 31.1834 251.161 31.37 251.977 31.5715C252.321 31.654 252.43 31.883 252.469 32.2437C252.625 33.7002 252.1 34.8157 250.83 35.5248C249.442 36.3017 247.97 36.7006 246.457 35.8856C245.515 35.3795 245.063 34.5497 245.164 33.4416C245.265 32.3336 246.023 31.7549 246.955 31.4139C247.423 31.2413 247.92 31.1456 248.429 31.0474ZM283.507 38.9339C282.416 39.2528 281.394 39.3242 280.401 38.9807C279.307 38.6027 279.029 37.6264 278.897 36.4641C278.812 36.5381 278.74 36.5992 278.677 36.6525C278.566 36.7472 278.484 36.8173 278.405 36.8913C276.2 39.0016 273.649 39.8462 270.641 38.993C268.738 38.4562 267.175 36.5208 266.988 34.6629C266.677 31.5849 268.746 29.8095 271.051 29.1004C273.267 28.4183 275.499 28.55 277.72 29.1225C277.758 29.1319 277.795 29.1432 277.831 29.1541C278.03 29.2153 278.199 29.267 278.273 28.9256C278.561 27.5934 277.759 25.9153 276.523 25.376C275.423 24.8903 274.187 24.8126 273.036 25.1569C272.13 25.4224 271.253 25.7809 270.333 26.1565L270.333 26.1565L270.332 26.1567L270.332 26.1567C269.93 26.3209 269.52 26.4884 269.096 26.6528C269.029 26.51 268.959 26.3611 268.886 26.2072L268.885 26.2061L268.885 26.2048C268.607 25.6179 268.295 24.9587 268.013 24.2864C267.971 24.1892 268.162 23.9171 268.306 23.8284C270.716 22.3178 273.366 21.744 276.173 22.0198C278.153 22.2144 279.959 22.8669 281.221 24.5475C282.055 25.6555 282.403 26.9261 282.441 28.2718C282.479 29.6054 282.476 30.9396 282.472 32.2739C282.471 32.8429 282.47 33.4118 282.472 33.9808C282.472 34.6567 282.517 35.3043 283.313 35.5752C283.405 35.606 283.498 35.7931 283.5 35.9101C283.51 36.6708 283.509 37.4315 283.508 38.203C283.507 38.4455 283.507 38.689 283.507 38.9339ZM278.279 32.7361C278.273 32.6434 278.277 32.5478 278.28 32.4526C278.292 32.0749 278.303 31.7028 277.754 31.5357C276.1 31.0333 274.455 30.7502 272.769 31.3892C271.71 31.7893 270.981 32.6622 270.954 33.6188C270.924 34.7035 271.547 35.5666 272.659 36.0455C273.807 36.538 274.921 36.3164 275.983 35.8547C277.331 35.2699 278.372 34.4031 278.279 32.7361ZM202.24 25.0129C204.399 25.1791 205.758 27.0333 205.22 29.2248C205.161 29.2124 205.11 29.2031 205.064 29.1947C205.001 29.183 204.947 29.1732 204.896 29.1596C202.299 28.4873 199.709 28.3347 197.202 29.4723C195.422 30.2812 194.209 31.5813 194.068 33.6472C193.924 35.6516 194.701 37.2177 196.386 38.3258C198.573 39.7625 201.736 39.6517 204.092 38.0278C204.517 37.7304 204.914 37.3972 205.35 37.0311C205.56 36.8546 205.779 36.6704 206.015 36.479C206.046 37.6584 206.41 38.5966 207.504 38.982C208.516 39.339 209.551 39.2418 210.6 38.9303C210.6 38.6866 210.6 38.444 210.601 38.2023C210.602 37.4324 210.603 36.6707 210.593 35.9089C210.589 35.844 210.571 35.7807 210.539 35.7241C210.507 35.6675 210.462 35.6191 210.408 35.5827C209.605 35.297 209.524 34.6544 209.524 33.9427L209.525 33.1878C209.526 31.4954 209.528 29.803 209.504 28.1106C209.494 26.9374 209.139 25.7932 208.482 24.8209C207.413 23.2277 205.846 22.4619 203.987 22.1504C200.86 21.6259 197.973 22.2329 195.291 23.8815C195.151 23.9639 194.998 24.2508 195.045 24.3555C195.321 24.9631 195.624 25.5582 195.938 26.1764L195.938 26.1766L195.939 26.179L195.94 26.1794C196.043 26.3819 196.147 26.5869 196.252 26.7957C196.39 26.7188 196.52 26.6465 196.646 26.577L196.651 26.5743L196.652 26.5739L196.652 26.5736L196.654 26.5726L196.657 26.571C196.867 26.4546 197.064 26.3456 197.26 26.2343C198.804 25.3564 200.437 24.8738 202.24 25.0129ZM205.31 32.3612C205.298 32.4601 205.287 32.5492 205.302 32.6167C205.464 34.157 204.682 34.9991 203.611 35.5802C202.404 36.234 201.122 36.6193 199.74 36.0456C198.635 35.5864 198.037 34.7725 198.037 33.6879C198.039 32.6844 198.693 31.8325 199.774 31.4114C201.494 30.7416 203.183 31.0125 204.87 31.5567C205.39 31.7232 205.345 32.0812 205.31 32.3612ZM223.53 29.2446C224.009 27.5357 223.265 25.7184 221.615 25.2407C219.456 24.6153 217.498 25.2001 215.616 26.2392L215.417 26.3497C215.18 26.4806 214.944 26.6116 214.707 26.7403C214.695 26.7468 214.679 26.7436 214.631 26.7342C214.615 26.7311 214.596 26.7274 214.572 26.7231C214.463 26.4973 214.349 26.2686 214.234 26.0373L214.234 26.0362L214.233 26.0353L214.233 26.0347L214.232 26.0337L214.232 26.0329L214.232 26.0324C213.961 25.4871 213.683 24.9274 213.431 24.358C213.382 24.2484 213.527 23.9615 213.659 23.8766C215.333 22.7957 217.251 22.1518 219.239 22.004C220.796 21.8895 222.339 21.9892 223.841 22.5247C226.363 23.4272 227.773 25.5141 227.864 28.1143C227.911 29.4347 227.905 30.7567 227.899 32.0789C227.897 32.6814 227.894 33.2838 227.896 33.8861C227.896 34.5978 227.913 35.3008 228.774 35.584C228.86 35.611 228.937 35.808 228.938 35.9262C228.947 36.7034 228.947 37.4805 228.946 38.2617C228.945 38.4855 228.945 38.7095 228.945 38.934C227.897 39.2344 226.888 39.3231 225.887 38.9943C224.749 38.625 224.487 37.6216 224.329 36.532C224.108 36.71 223.9 36.8895 223.697 37.0645L223.696 37.0647C223.269 37.4331 222.864 37.7812 222.414 38.0525C220.172 39.4068 217.812 39.8623 215.348 38.6595C213.608 37.8087 212.58 36.4433 212.435 34.455C212.284 32.405 213.148 30.8919 214.855 29.8417C216.011 29.1286 217.335 28.734 218.693 28.6979C220.337 28.6401 221.964 28.6807 223.53 29.2446ZM223.693 32.7264C223.685 32.628 223.689 32.5254 223.693 32.4231C223.707 32.0542 223.721 31.6879 223.175 31.526C221.538 31.0335 219.911 30.754 218.239 31.3807C217.152 31.787 216.428 32.6279 216.402 33.5968C216.371 34.7049 216.968 35.5667 218.094 36.037C219.498 36.6243 220.802 36.2266 222.033 35.5507C223.108 34.9573 223.842 34.0844 223.693 32.7264ZM104.096 25.0302C106.38 25.2962 107.408 26.8684 106.976 29.2163C106.933 29.2079 106.896 29.2014 106.863 29.1955C106.797 29.1841 106.746 29.1751 106.695 29.1597C104.439 28.533 102.163 28.4099 99.9091 29.1006C97.6769 29.7839 95.5482 31.4891 95.8535 34.6729C96.0321 36.5369 97.5243 38.3751 99.5213 38.9907C102.125 39.791 104.448 39.131 106.557 37.5305C106.813 37.3356 107.047 37.1124 107.311 36.8617L107.311 36.8616L107.312 36.8611L107.312 36.8608L107.312 36.8605L107.313 36.8602C107.442 36.7376 107.577 36.6085 107.726 36.4729C107.927 37.5847 108.143 38.6201 109.281 38.9895C110.283 39.3182 111.296 39.2394 112.331 38.9427V35.6246C111.467 35.4178 111.305 34.7628 111.305 34.0241C111.303 33.4164 111.304 32.8086 111.305 32.2008V32.2003C111.307 30.8835 111.309 29.5667 111.282 28.251C111.216 25.2408 109.558 23.0874 106.622 22.3339C103.233 21.466 100.048 22.0668 97.0773 23.8668C96.9468 23.9505 96.8102 24.2448 96.8607 24.3593C97.1267 24.9697 97.4197 25.5677 97.7081 26.1565L97.7081 26.1565C97.8053 26.355 97.9021 26.5525 97.997 26.749C98.0644 26.7465 98.1313 26.7366 98.1965 26.7194C98.3824 26.6149 98.5677 26.508 98.7528 26.4012C98.8337 26.3545 98.9146 26.3079 98.9955 26.2614C100.575 25.3516 102.25 24.8148 104.096 25.0302ZM103.059 31.0511C103.296 31.0038 103.535 30.9561 103.775 30.9006L103.779 30.9067C103.957 30.9465 104.135 30.9857 104.312 31.0247L104.315 31.0254L104.316 31.0254L104.316 31.0255C105.103 31.1988 105.88 31.3699 106.644 31.5826C106.748 31.6264 106.842 31.6936 106.917 31.7789C106.992 31.8642 107.046 31.9655 107.076 32.0751C107.337 33.6276 106.83 34.7776 105.531 35.5015C104.037 36.3338 102.477 36.7512 100.898 35.728C100.054 35.1814 99.7047 34.3442 99.8426 33.3432C99.9805 32.3423 100.677 31.755 101.553 31.4324C102.032 31.2558 102.54 31.1545 103.059 31.0511ZM119.295 25.1323C119.544 24.9163 119.779 24.6966 120.009 24.4815C120.494 24.0283 120.957 23.5953 121.483 23.2597C123.47 21.9928 125.657 21.6111 127.948 22.2415C129.317 22.6194 130.183 23.6253 130.548 24.9562C130.852 25.9938 131.025 27.0648 131.066 28.145C131.115 30.6854 131.107 33.2271 131.099 35.7691V35.7692V35.7694V35.7695V35.7697V35.7698C131.096 36.6673 131.093 37.5648 131.093 38.4624C131.093 38.5665 131.079 38.6712 131.063 38.7946L131.063 38.7951L131.063 38.7952L131.063 38.7957C131.055 38.8587 131.046 38.9265 131.038 39.0016C130.757 39.0016 130.476 39.0022 130.197 39.0028C129.195 39.0049 128.205 39.007 127.216 38.9819C127.092 38.9819 126.895 38.7012 126.884 38.5399C126.855 38.1433 126.859 37.7442 126.863 37.3432V37.3432V37.3431V37.343V37.343V37.3429C126.864 37.1677 126.866 36.9922 126.865 36.8163C126.86 36.0695 126.857 35.3227 126.853 34.5759C126.845 32.5599 126.836 30.5439 126.792 28.5279C126.769 27.4198 126.38 26.4287 125.288 25.9067C124.438 25.5017 123.571 25.6112 122.735 25.9732C121.315 26.5888 120.307 27.6107 119.805 29.0819C119.709 29.4146 119.668 29.7604 119.682 30.1063C119.677 31.5633 119.677 33.02 119.678 34.4767C119.678 35.6603 119.679 36.8439 119.676 38.0278L119.676 38.1305C119.676 38.6345 119.676 38.8529 119.569 38.9445C119.486 39.0146 119.341 39.0105 119.084 39.0032C118.971 39 118.835 38.9962 118.674 38.9979C118.01 39.0053 117.346 39.0029 116.661 39.0004L116.66 39.0004C116.31 38.9992 115.954 38.9979 115.589 38.9979C115.582 38.9107 115.573 38.8275 115.565 38.7466C115.547 38.582 115.53 38.4268 115.53 38.2666C115.53 37.2473 115.531 36.2281 115.531 35.2089V35.2088V35.2086V35.2085V35.2084V35.2083C115.532 31.1298 115.533 27.0519 115.516 22.974C115.516 22.3744 115.702 22.1885 116.288 22.2218C117.085 22.2673 117.888 22.2538 118.687 22.2218C119.138 22.207 119.314 22.3584 119.303 22.8177C119.285 23.3672 119.288 23.9118 119.292 24.4549V24.4557V24.4564V24.4571V24.4578V24.4586C119.294 24.6833 119.295 24.9078 119.295 25.1323ZM232.072 16.4882V26.0052L232.073 27.2352C232.074 28.0536 232.073 28.872 232.072 29.6905C232.069 31.6352 232.067 33.58 232.088 35.5236C232.105 37.2435 233.097 38.6976 234.865 39.0805C236.633 39.4634 238.323 39.1408 239.981 38.5486C240.124 38.4993 240.265 38.1989 240.247 38.0327C240.152 37.2029 240.018 36.3768 239.855 35.5568C239.837 35.4657 239.539 35.3623 239.381 35.3783C239.133 35.4024 238.885 35.444 238.637 35.4857C238.303 35.542 237.968 35.5982 237.632 35.611C236.957 35.6356 236.555 35.2859 236.431 34.626C236.33 34.1476 236.273 33.6609 236.26 33.172C236.249 31.0367 236.25 28.9013 236.252 26.7665V26.7595V26.7593V26.7591V26.7589V26.7587C236.252 26.0109 236.253 25.2632 236.253 24.5155C236.253 23.7838 236.252 23.0522 236.252 22.3207V22.3142V22.3141V22.314V22.3139C236.25 20.3051 236.248 18.2966 236.26 16.2875C236.264 15.811 236.121 15.6386 235.629 15.6559C234.99 15.6794 234.351 15.6746 233.712 15.6697C233.448 15.6677 233.184 15.6657 232.92 15.6657C232.072 15.6657 232.072 15.667 232.072 16.4881V16.4882ZM89.0755 24.9345L89.0756 24.9344L89.0756 24.9344L89.0757 24.9343C89.4559 24.4683 89.8141 24.0295 90.2168 23.6352C91.2424 22.6281 92.5093 22.1048 93.951 22.0014C94.4324 21.9657 94.6097 22.1578 94.5937 22.6392C94.5738 23.1987 94.5782 23.7618 94.5826 24.3222V24.3222V24.3222V24.3223C94.5844 24.5597 94.5863 24.7966 94.5863 25.0326C94.5863 25.4696 94.5863 25.6826 94.48 25.796C94.3788 25.9038 94.1815 25.9214 93.7963 25.9557L93.7244 25.9621C92.2273 26.0976 90.841 26.5248 89.7145 27.5824C89.0718 28.1832 88.7295 28.8567 88.7468 29.7874C88.7831 31.8061 88.7767 33.826 88.7702 35.8463V35.8465C88.7677 36.6306 88.7652 37.4148 88.7652 38.1989V38.9622H84.6407C84.6361 38.8857 84.6298 38.8081 84.6235 38.7297V38.7296V38.7296V38.7296C84.6111 38.577 84.5985 38.4215 84.5977 38.2654V23.0381C84.5977 22.2415 84.5977 22.2415 85.4238 22.2403C85.6609 22.2403 85.8982 22.2423 86.1356 22.2444L86.1358 22.2444C86.6983 22.2493 87.2611 22.2541 87.8221 22.2316C88.3035 22.2132 88.4894 22.3831 88.4722 22.8645C88.4503 23.4819 88.4596 24.1013 88.4688 24.72L88.4722 24.9513C88.4713 25.0841 88.4878 25.2169 88.507 25.3721L88.507 25.3721L88.507 25.3723L88.507 25.3725C88.5154 25.4402 88.5243 25.5122 88.5325 25.5903C88.7223 25.3673 88.9011 25.1482 89.0752 24.9348L89.0755 24.9345ZM286.726 38.9722H290.789C290.817 38.8258 290.836 38.6778 290.844 38.529C290.839 33.2899 290.842 28.0504 290.855 22.8104C290.857 22.3327 290.66 22.2231 290.228 22.2342L290.114 22.237C289.231 22.2584 288.342 22.28 287.461 22.2268C286.822 22.1874 286.672 22.4029 286.672 23.0185C286.691 27.1114 286.69 31.205 286.688 35.2982C286.688 36.2804 286.688 37.2625 286.688 38.2446C286.688 38.4009 286.699 38.5588 286.71 38.7216L286.71 38.7239L286.71 38.7243C286.716 38.8056 286.722 38.8881 286.726 38.9722ZM288.729 19.7595C288.558 19.7595 288.387 19.7582 288.217 19.7568C287.875 19.7541 287.534 19.7513 287.192 19.7595C286.83 19.7719 286.678 19.6364 286.684 19.2671C286.7 18.2243 286.696 17.1814 286.684 16.1386C286.684 15.8062 286.792 15.6572 287.143 15.6622C288.229 15.6745 289.315 15.6745 290.402 15.6622C290.771 15.6622 290.853 15.8345 290.85 16.1546C290.843 17.1974 290.837 18.2403 290.85 19.2831C290.85 19.6721 290.674 19.7756 290.324 19.7657C289.961 19.7539 289.597 19.756 289.232 19.758L289.231 19.758C289.064 19.759 288.896 19.7599 288.729 19.7595ZM264.194 38.4931V36.778C264.194 36.5629 264.193 36.3477 264.192 36.1326C264.19 35.7558 264.188 35.3794 264.189 35.0039C264.194 34.6518 264.053 34.4794 263.683 34.4856C262.845 34.4962 262.006 34.4962 261.168 34.4856C260.827 34.4819 260.695 34.6272 260.695 34.962C260.702 36.167 260.702 37.3715 260.695 38.5756C260.694 38.8772 260.799 39.0176 261.125 39.0114C261.978 38.9942 262.84 38.9893 263.702 39.0114C264.103 39.0213 264.194 38.8329 264.194 38.4931Z" fill="white"/>
</svg>
