<svg width="135" height="76" viewBox="0 0 135 76" fill="none" xmlns="http://www.w3.org/2000/svg">
<path d="M132.322 67.8775H131.339V67.2576H132.322V65.0916H133.046V67.2576H134.115V67.8775H133.046V72.5254H132.322V67.8775ZM125.764 72.5254V67.2576H126.461V68.0711C126.681 67.7338 126.947 67.4821 127.259 67.3146C127.575 67.146 127.936 67.0629 128.342 67.0629C128.948 67.0629 129.418 67.2291 129.755 67.5616C130.09 67.8953 130.26 68.3561 130.26 68.9486V72.5254H129.509V69.2764C129.509 68.7491 129.398 68.3573 129.176 68.1019C128.954 67.8478 128.61 67.7184 128.145 67.7184C127.581 67.7184 127.165 67.8858 126.9 68.2159C126.633 68.5461 126.501 69.0662 126.501 69.7751V72.5254H125.764ZM122.988 67.2576H123.752V72.5254H122.988V67.2576ZM122.804 65.2009C122.804 65.0465 122.859 64.9159 122.971 64.8054C123.082 64.6962 123.217 64.6404 123.373 64.6404C123.529 64.6404 123.662 64.6962 123.777 64.8054C123.887 64.9159 123.945 65.0465 123.945 65.2009C123.945 65.3576 123.889 65.493 123.783 65.6023C123.671 65.7067 123.536 65.759 123.373 65.759C123.212 65.759 123.078 65.7067 122.966 65.6023C122.859 65.493 122.804 65.3576 122.804 65.2009ZM119.807 68.3157C120.078 67.8585 120.345 67.5379 120.608 67.3467C120.869 67.1579 121.174 67.0629 121.521 67.0629C121.627 67.0629 121.731 67.0736 121.838 67.0926C121.944 67.1127 122.048 67.1389 122.152 67.1733L121.912 67.8633C121.833 67.8395 121.75 67.8205 121.662 67.8063C121.576 67.7884 121.496 67.7801 121.412 67.7801C120.971 67.7801 120.59 67.9879 120.276 68.3976C119.964 68.8109 119.807 69.3227 119.807 69.9366V72.5254H119.07V67.2576H119.807V68.3157ZM114.276 67.9262H114.82C115.789 67.9262 116.44 67.8063 116.773 67.5616C117.106 67.3194 117.273 66.8919 117.273 66.2827C117.273 66.0238 117.233 65.7899 117.156 65.5737C117.082 65.3576 116.969 65.1629 116.816 64.9943C116.659 64.8209 116.45 64.6974 116.181 64.6249C115.913 64.5561 115.461 64.5204 114.82 64.5204H114.276V67.9262ZM113.478 72.5254V63.8269H115.077C115.711 63.8269 116.175 63.8602 116.473 63.9279C116.77 63.9932 117.03 64.106 117.252 64.2604C117.527 64.4563 117.74 64.7283 117.893 65.0726C118.043 65.417 118.12 65.8006 118.12 66.2186C118.12 67.0486 117.887 67.6554 117.417 68.0402C116.953 68.4285 116.212 68.6209 115.199 68.6209H114.276V72.5254H113.478ZM103.429 72.5254V67.2576H104.13V68.0711C104.345 67.7338 104.613 67.4821 104.926 67.3146C105.239 67.146 105.6 67.0629 106.009 67.0629C106.613 67.0629 107.083 67.2291 107.421 67.5616C107.756 67.8953 107.924 68.3561 107.924 68.9486V72.5254H107.175V69.2764C107.175 68.7491 107.063 68.3573 106.842 68.1019C106.62 67.8478 106.276 67.7184 105.812 67.7184C105.246 67.7184 104.832 67.8858 104.566 68.2159C104.299 68.5461 104.166 69.0662 104.166 69.7751V72.5254H103.429ZM100.654 67.2576H101.416V72.5254H100.654V67.2576ZM100.471 65.2009C100.471 65.0465 100.523 64.9159 100.636 64.8054C100.747 64.6962 100.883 64.6404 101.039 64.6404C101.194 64.6404 101.326 64.6962 101.441 64.8054C101.555 64.9159 101.613 65.0465 101.613 65.2009C101.613 65.3576 101.556 65.493 101.447 65.6023C101.337 65.7067 101.2 65.759 101.039 65.759C100.878 65.759 100.744 65.7067 100.632 65.6023C100.523 65.493 100.471 65.3576 100.471 65.2009ZM91.7729 71.5861L92.4718 71.1871C92.5893 71.4804 92.7581 71.7024 92.9774 71.8533C93.1968 72.0005 93.4665 72.0753 93.7865 72.0753C94.0992 72.0753 94.3462 71.9969 94.5321 71.8402C94.7153 71.6834 94.8076 71.4768 94.8076 71.2144C94.8076 70.8083 94.4443 70.4651 93.7206 70.1836C93.6426 70.1587 93.584 70.1326 93.5395 70.1124C92.9824 69.8963 92.5902 69.6694 92.3675 69.4391C92.1444 69.2087 92.0318 68.9225 92.0318 68.5817C92.0318 68.1364 92.1926 67.7671 92.5102 67.4797C92.8302 67.1947 93.2447 67.0498 93.7506 67.0498C94.1845 67.0498 94.5511 67.1436 94.8542 67.3277C95.1577 67.5141 95.3792 67.7801 95.5194 68.1233L94.8435 68.4974C94.7585 68.248 94.6195 68.058 94.4229 67.9286C94.2262 67.7979 93.9878 67.7315 93.7015 67.7315C93.445 67.7315 93.2339 67.8063 93.0673 67.9547C92.9032 68.1019 92.817 68.2884 92.817 68.5104C92.817 68.7277 92.9007 68.9083 93.0627 69.0496C93.229 69.1921 93.5696 69.3476 94.0872 69.5186C94.6699 69.7205 95.0629 69.9402 95.2666 70.1789C95.4691 70.4164 95.5697 70.7465 95.5697 71.1657C95.5697 71.6478 95.3949 72.0349 95.0472 72.3223C94.6975 72.6133 94.2323 72.7569 93.6451 72.7569C93.1931 72.7569 92.805 72.6572 92.4776 72.4517C92.153 72.2487 91.9168 71.9601 91.7729 71.5861ZM85.9758 72.5254V67.2576H86.6757V68.0711C86.8939 67.7338 87.1611 67.4821 87.4728 67.3146C87.7891 67.146 88.15 67.0629 88.555 67.0629C89.1628 67.0629 89.6325 67.2291 89.9682 67.5616C90.3035 67.8953 90.4726 68.3561 90.4726 68.9486V72.5254H89.7236V69.2764C89.7236 68.7491 89.6119 68.3573 89.3904 68.1019C89.1686 67.8478 88.8234 67.7184 88.3583 67.7184C87.7953 67.7184 87.378 67.8858 87.1144 68.2159C86.8472 68.5461 86.7153 69.0662 86.7153 69.7751V72.5254H85.9758ZM81.5389 72.7569C81.1591 72.7569 80.7958 72.6821 80.447 72.5349C80.0997 72.3864 79.7855 72.1727 79.4989 71.8948C79.2329 71.6347 79.0304 71.3343 78.8902 70.9923C78.75 70.6515 78.6794 70.2893 78.6794 69.9022C78.6794 69.5174 78.75 69.1541 78.8951 68.8085C79.0399 68.4641 79.2461 68.1589 79.5121 67.8953C79.7855 67.6234 80.0923 67.4179 80.4412 67.2743C80.79 67.1329 81.1542 67.0629 81.5389 67.0629C81.9295 67.0629 82.3023 67.1329 82.657 67.2743C83.0095 67.4179 83.3234 67.6234 83.6017 67.8953C83.8772 68.1637 84.0883 68.4701 84.2331 68.8144C84.3783 69.16 84.4513 69.5222 84.4513 69.9022C84.4513 70.281 84.3807 70.6432 84.238 70.9864C84.0929 71.3284 83.8855 71.6312 83.6124 71.8948C83.332 72.1727 83.0144 72.3864 82.657 72.5349C82.2986 72.6821 81.9249 72.7569 81.5389 72.7569ZM81.5641 72.0753C82.1452 72.0753 82.6417 71.8675 83.0467 71.4495C83.4517 71.0327 83.6532 70.5185 83.6532 69.9117C83.6532 69.2989 83.4517 68.7847 83.0491 68.3691C82.645 67.9547 82.1501 67.7445 81.5641 67.7445C80.9793 67.7445 80.4853 67.9547 80.0852 68.3691C79.6812 68.7847 79.4774 69.2989 79.4774 69.9117C79.4774 70.5185 79.6812 71.0327 80.0852 71.4495C80.4853 71.8675 80.9793 72.0753 81.5641 72.0753ZM76.3457 67.2576H77.1082V72.5254H76.3457V67.2576ZM76.1623 65.2009C76.1623 65.0465 76.2175 64.9159 76.3289 64.8054C76.4406 64.6962 76.5734 64.6404 76.7305 64.6404C76.8864 64.6404 77.0204 64.6962 77.1343 64.8054C77.2472 64.9159 77.3046 65.0465 77.3046 65.2009C77.3046 65.3576 77.2484 65.493 77.1404 65.6023C77.0303 65.7067 76.8922 65.759 76.7305 65.759C76.5722 65.759 76.4356 65.7067 76.3255 65.6023C76.2175 65.493 76.1623 65.3576 76.1623 65.2009ZM71.0065 71.5861L71.7039 71.1871C71.8214 71.4804 71.988 71.7024 72.2111 71.8533C72.4268 72.0005 72.6986 72.0753 73.0165 72.0753C73.3303 72.0753 73.5786 71.9969 73.7617 71.8402C73.9477 71.6834 74.04 71.4768 74.04 71.2144C74.04 70.8083 73.6767 70.4651 72.953 70.1836C72.8738 70.1587 72.8137 70.1326 72.7695 70.1124C72.2144 69.8963 71.8239 69.6694 71.5984 69.4391C71.3768 69.2087 71.2642 68.9225 71.2642 68.5817C71.2642 68.1364 71.4247 67.7671 71.7422 67.4797C72.0623 67.1947 72.4746 67.0498 72.9827 67.0498C73.4141 67.0498 73.7835 67.1436 74.0879 67.3277C74.3898 67.5141 74.6116 67.7801 74.7506 68.1233L74.0759 68.4974C73.9906 68.248 73.8528 68.058 73.654 67.9286C73.4561 67.7979 73.2177 67.7315 72.9336 67.7315C72.6759 67.7315 72.4639 67.8063 72.2997 67.9547C72.1331 68.1019 72.0491 68.2884 72.0491 68.5104C72.0491 68.7277 72.1307 68.9083 72.2961 69.0496C72.4614 69.1921 72.8017 69.3476 73.3184 69.5186C73.9007 69.7205 74.2962 69.9402 74.499 70.1789C74.6991 70.4164 74.8009 70.7465 74.8009 71.1657C74.8009 71.6478 74.6273 72.0349 74.2784 72.3223C73.9308 72.6133 73.4635 72.7569 72.8763 72.7569C72.4231 72.7569 72.0346 72.6572 71.71 72.4517C71.3839 72.2487 71.1492 71.9601 71.0065 71.5861ZM66.3168 71.5861L67.0142 71.1871C67.1305 71.4804 67.2995 71.7024 67.5189 71.8533C67.738 72.0005 68.0101 72.0753 68.3277 72.0753C68.6419 72.0753 68.8898 71.9969 69.0732 71.8402C69.2567 71.6834 69.3512 71.4768 69.3512 71.2144C69.3512 70.8083 68.987 70.4651 68.2617 70.1836C68.185 70.1587 68.1252 70.1326 68.0798 70.1124C67.5223 69.8963 67.1317 69.6694 66.9099 69.4391C66.6859 69.2087 66.5742 68.9225 66.5742 68.5817C66.5742 68.1364 66.7325 67.7671 67.0525 67.4797C67.3713 67.1947 67.7849 67.0498 68.2942 67.0498C68.7244 67.0498 69.0947 67.1436 69.3982 67.3277C69.6988 67.5141 69.9231 67.7801 70.0621 68.1233L69.3871 68.4974C69.2997 68.248 69.1607 68.058 68.9643 67.9286C68.7676 67.7979 68.5292 67.7315 68.2451 67.7315C67.9862 67.7315 67.7754 67.8063 67.6109 67.9547C67.4443 68.1019 67.3606 68.2884 67.3606 68.5104C67.3606 68.7277 67.4422 68.9083 67.6063 69.0496C67.7705 69.1921 68.1095 69.3476 68.6287 69.5186C69.2122 69.7205 69.604 69.9402 69.8081 70.1789C70.0106 70.4164 70.1112 70.7465 70.1112 71.1657C70.1112 71.6478 69.9372 72.0349 69.5899 72.3223C69.2423 72.6133 68.7735 72.7569 68.1875 72.7569C67.7346 72.7569 67.3449 72.6572 67.0191 72.4517C66.6942 72.2487 66.4591 71.9601 66.3168 71.5861ZM65.3831 69.9117H61.1582C61.1788 70.5921 61.3488 71.1301 61.6725 71.5172C61.9962 71.9067 62.43 72.1014 62.9752 72.1014C63.3658 72.1014 63.7101 71.9946 64.0037 71.7844C64.3007 71.5766 64.5477 71.2583 64.7456 70.8356L65.4203 71.2025C65.1469 71.7369 64.8137 72.1287 64.4206 72.3805C64.0276 72.6323 63.5456 72.7569 62.9728 72.7569C62.1938 72.7569 61.5633 72.5004 61.0803 71.9815C60.6011 71.4661 60.359 70.7881 60.359 69.9485C60.359 69.0828 60.5986 68.3893 61.0769 67.8561C61.5525 67.3277 62.1769 67.0629 62.9501 67.0629C63.6837 67.0629 64.2731 67.3063 64.718 67.7944C65.1613 68.2848 65.3831 68.9356 65.3831 69.7502V69.9117ZM64.5105 69.2894C64.4746 68.8061 64.3114 68.4321 64.0252 68.1649C63.7361 67.9013 63.348 67.7671 62.8553 67.7671C62.407 67.7671 62.0308 67.9048 61.7299 68.1839C61.4267 68.4617 61.2543 68.8299 61.204 69.2894H64.5105ZM57.6814 68.3157C57.9548 67.8585 58.2195 67.5379 58.4831 67.3467C58.7445 67.1579 59.0513 67.0629 59.399 67.0629C59.5008 67.0629 59.6051 67.0736 59.7128 67.0926C59.8184 67.1127 59.9239 67.1389 60.0282 67.1733L59.7895 67.8633C59.7082 67.8395 59.6242 67.8205 59.5392 67.8063C59.4517 67.7884 59.3713 67.7801 59.2897 67.7801C58.8476 67.7801 58.4653 67.9879 58.1536 68.3976C57.8397 68.8109 57.6814 69.3227 57.6814 69.9366V72.5254H56.9456V67.2576H57.6814V68.3157ZM50.3 75.1794V67.2576H51.013V68.2445C51.218 67.8633 51.4827 67.5711 51.8123 67.3681C52.1396 67.165 52.5075 67.0629 52.9162 67.0629C53.6618 67.0629 54.2656 67.3217 54.7224 67.8443C55.1814 68.3644 55.4103 69.0543 55.4103 69.9117C55.4103 70.7762 55.186 71.4661 54.739 71.9815C54.2907 72.5004 53.6952 72.7569 52.9521 72.7569C52.5232 72.7569 52.1455 72.6572 51.8184 72.4517C51.4876 72.2487 51.2226 71.9483 51.013 71.5516V75.1794H50.3ZM54.612 69.9236C54.612 69.2431 54.454 68.7076 54.1422 68.3181C53.8271 67.9262 53.3942 67.7315 52.8432 67.7315C52.2725 67.7315 51.8291 67.9203 51.5091 68.2991C51.1854 68.6779 51.0262 69.198 51.0262 69.8594C51.0262 70.5327 51.1974 71.0707 51.5426 71.4744C51.889 71.8746 52.348 72.0753 52.9162 72.0753C53.4519 72.0753 53.8667 71.8877 54.1649 71.5077C54.4622 71.1313 54.612 70.6028 54.612 69.9236ZM44.6643 67.2576H45.5835L46.8817 69.1933L48.1832 67.2576H49.0834L47.2916 69.7882L49.269 72.5254H48.3593L46.8734 70.3997L45.4016 72.5254H44.4799L46.4693 69.7882L44.6643 67.2576ZM39.2698 72.5254V63.8269H43.6168V64.5691H40.0682V67.2944H43.6168V68.0366H40.0682V71.7832H43.6168V72.5254H39.2698ZM34.084 69.9117H29.8592C29.8808 70.5921 30.0534 71.1301 30.3758 71.5172C30.6983 71.9067 31.1346 72.1014 31.6785 72.1014C32.0694 72.1014 32.4134 71.9946 32.7082 71.7844C33.004 71.5766 33.251 71.2583 33.4464 70.8356L34.1211 71.2025C33.8502 71.7369 33.5145 72.1287 33.1215 72.3805C32.7285 72.6323 32.2468 72.7569 31.6761 72.7569C30.8946 72.7569 30.2643 72.5004 29.7849 71.9815C29.3031 71.4661 29.0622 70.7881 29.0622 69.9485C29.0622 69.0828 29.3019 68.3893 29.7789 67.8561C30.2548 67.3277 30.8793 67.0629 31.6509 67.0629C32.3845 67.0629 32.9742 67.3063 33.4188 67.7944C33.8622 68.2848 34.084 68.9356 34.084 69.7502V69.9117ZM33.2139 69.2894C33.1743 68.8061 33.016 68.4321 32.7273 68.1649C32.4385 67.9013 32.0501 67.7671 31.5564 67.7671C31.1082 67.7671 30.7342 67.9048 30.4345 68.1839C30.1313 68.4617 29.9551 68.8299 29.906 69.2894H33.2139ZM26.6305 67.8775H25.6477V67.2576H26.6305V65.0916H27.3543V67.2576H28.4222V67.8775H27.3543V72.5254H26.6305V67.8775ZM23.6953 67.2576H24.4564V72.5254H23.6953V67.2576ZM23.5107 65.2009C23.5107 65.0465 23.5659 64.9159 23.6773 64.8054C23.7888 64.6962 23.923 64.6404 24.0788 64.6404C24.2346 64.6404 24.3677 64.6962 24.4827 64.8054C24.5954 64.9159 24.6529 65.0465 24.6529 65.2009C24.6529 65.3576 24.5978 65.493 24.4887 65.6023C24.3785 65.7067 24.2406 65.759 24.0788 65.759C23.9182 65.759 23.784 65.7067 23.6738 65.6023C23.5659 65.493 23.5107 65.3576 23.5107 65.2009ZM17.2461 72.5254V67.2576H17.9473V68.0711C18.1642 67.7338 18.4291 67.4821 18.7431 67.3146C19.0595 67.146 19.4179 67.0629 19.8265 67.0629C20.433 67.0629 20.8992 67.2291 21.2396 67.5616C21.574 67.8953 21.7406 68.3561 21.7406 68.9486V72.5254H20.9939V69.2764C20.9939 68.7491 20.8824 68.3573 20.6583 68.1019C20.439 67.8478 20.095 67.7184 19.6288 67.7184C19.0655 67.7184 18.6496 67.8858 18.3823 68.2159C18.1175 68.5461 17.982 69.0662 17.982 69.7751V72.5254H17.2461ZM14.4704 67.2576H15.2326V72.5254H14.4704V67.2576ZM14.287 65.2009C14.287 65.0465 14.3422 64.9159 14.456 64.8054C14.5651 64.6962 14.7005 64.6404 14.8575 64.6404C15.0109 64.6404 15.1452 64.6962 15.259 64.8054C15.3717 64.9159 15.4292 65.0465 15.4292 65.2009C15.4292 65.3576 15.3729 65.493 15.265 65.6023C15.1559 65.7067 15.0169 65.759 14.8575 65.759C14.6969 65.759 14.5627 65.7067 14.4512 65.6023C14.3422 65.493 14.287 65.3576 14.287 65.2009ZM11.4154 72.5254V67.8775H10.4218V67.2576H11.4154V65.7341C11.4154 64.6772 11.5149 63.9908 11.7162 63.6785C11.914 63.3626 12.2819 63.2047 12.8129 63.2047C12.9459 63.2047 13.0717 63.2154 13.1916 63.2379C13.3114 63.2593 13.4241 63.2902 13.5272 63.3294L13.3905 63.9683C13.2935 63.9219 13.2024 63.8839 13.1125 63.8626C13.0226 63.8388 12.9399 63.8269 12.8656 63.8269C12.6043 63.8269 12.421 63.9279 12.3131 64.1321C12.2052 64.3364 12.1513 64.7128 12.1513 65.2591V67.2576H13.3198V67.8775H12.1513V72.5254H11.4154ZM4.84399 72.5254V67.2576H5.5451V68.0711C5.76082 67.7338 6.02689 67.4821 6.34212 67.3146C6.65492 67.146 7.01568 67.0629 7.42436 67.0629C8.02842 67.0629 8.49822 67.2291 8.83621 67.5616C9.17058 67.8953 9.33958 68.3561 9.33958 68.9486V72.5254H8.59051V69.2764C8.59051 68.7491 8.47904 68.3573 8.25614 68.1019C8.0344 67.8478 7.69163 67.7184 7.22781 67.7184C6.6621 67.7184 6.24863 67.8858 5.98136 68.2159C5.71409 68.5461 5.58105 69.0662 5.58105 69.7751V72.5254H4.84399ZM1.96875 63.8269H2.76696V72.5254H1.96875V63.8269Z" fill="white"/>
<path fill-rule="evenodd" clip-rule="evenodd" d="M59.0184 2.40825C61.3039 6.32468 63.5906 10.2408 65.8773 14.1548V2.48668C63.5989 1.14361 61.3327 1.37161 59.0184 2.40825ZM50.4023 15.9113C54.9687 15.9089 59.5326 15.9052 64.1012 15.8995L53.9007 10.0651C51.5864 11.3489 50.6552 13.4058 50.4023 15.9113ZM57.8976 30.0555C60.176 26.1358 62.4569 22.2169 64.7363 18.2968L54.537 24.1312C54.5205 25.2998 54.7721 26.4018 55.3713 27.4299C55.9886 28.4893 56.9004 29.3454 57.8976 30.0555ZM74.008 30.697C71.7225 26.7805 69.4346 22.8653 67.1503 18.9513V30.6185C69.4285 31.9616 71.6937 31.7336 74.008 30.697ZM82.6348 17.1997C78.07 17.2033 73.5036 17.2079 68.9385 17.2115L79.1389 23.0447C81.452 21.7633 82.3845 19.704 82.6348 17.1997ZM57.912 3.04118C56.9161 3.75132 56.0042 4.60617 55.3869 5.66439C54.7865 6.69283 54.5346 7.79696 54.5514 8.96432L64.7519 14.7999C62.4713 10.8798 60.1917 6.96217 57.912 3.04118ZM50.4023 17.1772C50.6552 19.6803 51.5864 21.7396 53.9007 23.0231L64.1012 17.189C59.5326 17.1842 54.9687 17.1808 50.4023 17.1772ZM59.004 30.6885C61.3183 31.7251 63.5848 31.9531 65.8617 30.61V18.9407C63.575 22.8559 61.2907 26.7732 59.004 30.6885ZM75.1144 30.065C76.1116 29.3539 77.0234 28.4987 77.6383 27.442C78.2375 26.4124 78.4906 25.3092 78.475 24.1406L68.2757 18.3053C70.5529 22.2263 72.8347 26.144 75.1144 30.065ZM82.6373 15.9338C82.3845 13.4295 81.452 11.3726 79.1389 10.0888L68.9385 15.9232C73.5036 15.9268 78.07 15.9314 82.6373 15.9338ZM75.1297 3.04939C72.8479 6.97068 70.5707 10.888 68.2902 14.8093L78.4906 8.97404C78.5047 7.80547 78.2532 6.70347 77.6539 5.67504C77.0391 4.61803 76.126 3.76075 75.1297 3.04939ZM74.0237 2.41646C71.7081 1.37982 69.4429 1.1506 67.1647 2.49489V14.1658C69.4527 10.2493 71.7357 6.33411 74.0237 2.41646Z" fill="white"/>
<path fill-rule="evenodd" clip-rule="evenodd" d="M52.5157 6.14652C50.8125 5.38287 49.1456 5.21294 47.4688 6.20337V14.795C49.1514 11.9119 50.8343 9.02844 52.5157 6.14652ZM41.4607 26.9587C43.1639 27.722 44.832 27.8907 46.5076 26.9003V18.3111C44.825 21.1933 43.1421 24.0764 41.4607 26.9587ZM35.1289 17.0121C35.3158 18.8549 36.0003 20.3704 37.7034 21.3155L45.2119 17.0203C41.8501 17.017 38.4895 17.0145 35.1289 17.0121ZM40.6578 6.60587C39.9229 7.12844 39.2532 7.75894 38.7975 8.53688C38.3579 9.29445 38.1719 10.1067 38.1814 10.9664L45.6927 15.2629C44.0147 12.3773 42.3355 9.49052 40.6578 6.60587ZM52.5062 26.9644C50.8233 24.0825 49.1407 21.1991 47.4581 18.3172L47.4556 26.9076C49.1336 27.898 50.8018 27.7281 52.5062 26.9644ZM40.6467 26.4929C42.3247 23.6074 44.0015 20.7218 45.6795 17.8375L38.1719 22.1327C38.16 22.9912 38.3447 23.8047 38.7868 24.561C39.2409 25.3399 39.9122 25.9695 40.6467 26.4929ZM35.1289 16.08C38.4895 16.0776 41.8501 16.0752 45.2119 16.0727L37.7034 11.7763C36.0003 12.7217 35.3158 14.2369 35.1289 16.08ZM41.4702 6.14045C43.1528 9.02389 44.8382 11.9058 46.5195 14.7889V6.19759C44.8428 5.20838 43.1746 5.37801 41.4702 6.14045Z" fill="white"/>
<path fill-rule="evenodd" clip-rule="evenodd" d="M80.5117 6.14652C82.2161 5.38287 83.883 5.21294 85.5598 6.20337V14.795C83.8772 11.9119 82.1931 9.02844 80.5117 6.14652ZM91.5679 26.9587C89.8635 27.722 88.1954 27.8907 86.5186 26.9003V18.3111C88.2024 21.1933 89.8853 24.0764 91.5679 26.9587ZM97.8997 17.0121C97.7126 18.8549 97.0271 20.3704 95.3228 21.3155L87.8155 17.0203C91.1773 17.017 94.5379 17.0145 97.8997 17.0121ZM92.3709 6.60587C93.1057 7.12844 93.7755 7.75894 94.2311 8.53688C94.6708 9.29445 94.8579 10.1067 94.846 10.9664L87.336 15.2629C89.014 12.3773 90.6919 9.49052 92.3709 6.60587ZM80.5225 26.9644C82.2041 24.0825 83.8867 21.1991 85.5718 18.3172V26.9076C83.8929 27.898 82.2256 27.7281 80.5225 26.9644ZM92.3816 26.4929C90.7027 23.6074 89.0272 20.7218 87.3455 17.8375L94.8555 22.1327C94.8687 22.9912 94.6827 23.8047 94.2406 24.561C93.7865 25.3399 93.1152 25.9695 92.3816 26.4929ZM97.8997 16.08C94.5379 16.0776 91.1773 16.0752 87.8155 16.0727L95.3228 11.7763C97.0271 12.7217 97.7126 14.2369 97.8997 16.08ZM91.5572 6.14045C89.8746 9.02389 88.1892 11.9058 86.5066 14.7889V6.19759C88.1859 5.20838 89.8528 5.37801 91.5572 6.14045Z" fill="white"/>
<path d="M9.43284 46.082V47.7256C9.43284 48.6946 9.74325 49.5127 10.3689 50.1884C10.9885 50.8606 11.7831 51.1966 12.7371 51.1966C13.8625 51.1966 14.747 50.7632 15.3894 49.8987C16.027 49.0306 16.3471 47.8182 16.3471 46.2626C16.3471 44.9576 16.0486 43.9361 15.4506 43.1999C14.8573 42.4614 14.0459 42.0933 13.0272 42.0933C11.9497 42.0933 11.0784 42.4745 10.418 43.2296C9.76243 43.9909 9.43284 44.9421 9.43284 46.082ZM9.51314 51.3166H9.45923V59.3726H6.42578V40.0079H9.45923V42.3368H9.51314C10.5463 40.5769 12.0648 39.6993 14.0591 39.6993C15.7574 39.6993 17.0841 40.2848 18.0346 41.471C18.985 42.656 19.4584 44.2426 19.4584 46.2364C19.4584 48.4464 18.9226 50.2193 17.8512 51.5457C16.7821 52.8769 15.3163 53.5431 13.461 53.5431C11.7532 53.5431 10.4348 52.8009 9.51314 51.3166Z" fill="white"/>
<path d="M30.3301 42.8676C29.9657 42.5837 29.4336 42.4423 28.7456 42.4423C27.8491 42.4423 27.1001 42.846 26.4972 43.6452C25.8956 44.4493 25.5971 45.5419 25.5971 46.9216V53.27H22.5625V40.007H25.5971V42.7405H25.6499C25.9447 41.8069 26.399 41.0816 27.0138 40.559C27.6322 40.0319 28.3129 39.7717 29.0728 39.7717C29.6217 39.7717 30.04 39.8571 30.3301 40.02V42.8676Z" fill="white"/>
<path d="M35.507 53.2712H32.4723V40.0079H35.507V53.2712ZM34.0018 37.222C33.5066 37.222 33.0835 37.0643 32.7312 36.7436C32.3741 36.4228 32.1992 36.0179 32.1992 35.523C32.1992 35.0323 32.3741 34.6216 32.7312 34.2939C33.0835 33.9671 33.5066 33.8057 34.0018 33.8057C34.5157 33.8057 34.952 33.9671 35.3104 34.2939C35.6675 34.6216 35.8448 35.0323 35.8448 35.523C35.8448 35.993 35.6675 36.3909 35.3104 36.7235C34.952 37.057 34.5157 37.222 34.0018 37.222Z" fill="white"/>
<path d="M51.3839 53.27H48.3541V45.7971C48.3541 43.3187 47.4658 42.0802 45.7004 42.0802C44.7753 42.0802 44.0129 42.421 43.4112 43.1108C42.8083 43.796 42.5101 44.6618 42.5101 45.7068V53.27H39.4609V40.0079H42.5101V42.2085H42.5641C43.5634 40.5341 45.0125 39.6993 46.9 39.6993C48.3587 39.6993 49.4709 40.1659 50.2333 41.1041C51.0004 42.0362 51.3839 43.3947 51.3839 45.1607V53.27Z" fill="white"/>
<path d="M62.1404 53.1285C61.5507 53.4206 60.7716 53.5667 59.8021 53.5667C57.2061 53.5667 55.907 52.334 55.907 49.8617V42.3627H53.6719V40.0076H55.907V36.9382L58.9415 36.0806V40.0076H62.1404V42.3627H58.9415V48.9948C58.9415 49.7821 59.0854 50.3426 59.3683 50.6787C59.6594 51.0147 60.1378 51.1834 60.81 51.1834C61.3242 51.1834 61.7642 51.0385 62.1404 50.7464V53.1285Z" fill="white"/>
<path d="M63.918 52.8546V50.071C65.0529 50.9272 66.3004 51.3536 67.6704 51.3536C69.4993 51.3536 70.4152 50.8168 70.4152 49.7469C70.4152 49.4464 70.3348 49.1899 70.1789 48.9774C70.023 48.766 69.8147 48.5748 69.545 48.4121C69.2824 48.2494 68.9648 48.1034 68.6028 47.9739C68.2423 47.8409 67.8406 47.6949 67.3948 47.531C66.8459 47.3172 66.351 47.0892 65.9123 46.8458C65.4711 46.6036 65.1057 46.3304 64.8157 46.0229C64.5209 45.7153 64.3015 45.3697 64.1551 44.9803C64.0042 44.5908 63.9312 44.1406 63.9312 43.6192C63.9312 42.983 64.0833 42.4163 64.3865 41.9296C64.6933 41.4426 65.1057 41.0331 65.6174 40.7005C66.1329 40.3704 66.7152 40.1187 67.3672 39.95C68.0241 39.7825 68.6976 39.697 69.3928 39.697C70.6333 39.697 71.7394 39.8834 72.7175 40.254V42.882C71.7765 42.2443 70.6919 41.926 69.4741 41.926C69.0894 41.926 68.7421 41.9615 68.4353 42.0424C68.1272 42.1196 67.8621 42.2251 67.644 42.3631C67.4249 42.5008 67.2558 42.668 67.1359 42.8629C67.0101 43.0578 66.9524 43.269 66.9524 43.5031C66.9524 43.7868 67.0101 44.0315 67.1359 44.2297C67.2558 44.4282 67.4356 44.606 67.6765 44.7571C67.9161 44.9067 68.2015 45.042 68.5405 45.1666C68.8762 45.2949 69.2584 45.4314 69.6972 45.5776C70.2725 45.8079 70.7855 46.0466 71.2445 46.29C71.7047 46.5335 72.0916 46.8054 72.4141 47.1106C72.7353 47.4182 72.9848 47.7709 73.1596 48.1722C73.3321 48.5748 73.4232 49.0534 73.4232 49.6056C73.4232 50.2777 73.2664 50.8667 72.951 51.3666C72.6371 51.8689 72.2177 52.2798 71.6952 52.6123C71.1736 52.94 70.5719 53.1823 69.884 53.3414C69.2011 53.4994 68.4794 53.5813 67.7194 53.5813C66.2562 53.5813 64.9882 53.3414 63.918 52.8546Z" fill="white"/>
<path d="M96.3143 53.27H93.2808V46.0417C93.2808 44.6536 93.0844 43.6464 92.6877 43.0266C92.2898 42.4019 91.6197 42.0933 90.6777 42.0933C89.8855 42.0933 89.2109 42.4864 88.6583 43.2701C88.1057 44.0562 87.8277 44.9989 87.8277 46.0939V53.27H84.7847V45.7971C84.7847 43.3269 83.9014 42.0933 82.143 42.0933C81.3223 42.0933 80.6497 42.466 80.1214 43.2084C79.5964 43.9517 79.3313 44.9099 79.3313 46.0939V53.27H76.2969V40.0079H79.3313V42.1052H79.3853C80.3549 40.4973 81.7595 39.6993 83.6065 39.6993C84.5306 39.6993 85.3382 39.951 86.0334 40.4532C86.7262 40.9579 87.1997 41.6218 87.45 42.4423C88.4447 40.6125 89.9239 39.6993 91.8977 39.6993C94.8413 39.6993 96.3143 41.4959 96.3143 45.0953V53.27Z" fill="white"/>
<path d="M103.046 53.2712H100.012V40.0079H103.046V53.2712ZM101.542 37.222C101.047 37.222 100.622 37.0643 100.269 36.7436C99.9132 36.4228 99.7383 36.0179 99.7383 35.523C99.7383 35.0323 99.9132 34.6216 100.269 34.2939C100.622 33.9671 101.047 33.8057 101.542 33.8057C102.055 33.8057 102.493 33.9671 102.85 34.2939C103.206 34.6216 103.385 35.0323 103.385 35.523C103.385 35.993 103.206 36.3909 102.85 36.7235C102.493 37.057 102.055 37.222 101.542 37.222Z" fill="white"/>
<path d="M114.07 53.1285C113.481 53.4206 112.7 53.5667 111.731 53.5667C109.135 53.5667 107.837 52.334 107.837 49.8617V42.3627H105.602V40.0076H107.837V36.9382L110.87 36.0806V40.0076H114.07V42.3627H110.87V48.9948C110.87 49.7821 111.014 50.3426 111.298 50.6787C111.588 51.0147 112.067 51.1834 112.739 51.1834C113.253 51.1834 113.693 51.0385 114.07 50.7464V53.1285Z" fill="white"/>
<path d="M128.579 53.27H125.549V46.0168C125.549 43.3947 124.661 42.0802 122.894 42.0802C122.006 42.0802 121.256 42.4615 120.645 43.2202C120.033 43.9766 119.73 44.9491 119.73 46.1343V53.27H116.684V33.6348H119.73V42.2085H119.783C120.791 40.5341 122.242 39.6993 124.12 39.6993C127.093 39.6993 128.579 41.4959 128.579 45.0953V53.27Z" fill="white"/>
</svg>
